<?xml version="1.0" encoding="UTF-8"?>
<svg viewBox="0 0 70 70" version="1.1" xmlns="http://www.w3.org/2000/svg" xmlns:xlink="http://www.w3.org/1999/xlink">
    <defs>
        <linearGradient x1="16.6614538%" y1="11.4339155%" x2="88.5199252%" y2="82.8693411%" id="linearGradient-1">
            <stop stop-color="#FFFFFF" offset="0%"></stop>
            <stop stop-color="#FFFFFF" stop-opacity="0.901551178" offset="100%"></stop>
        </linearGradient>
        <path d="M72.2223857,58.3413535 C72.360608,56.971776 72.2712583,55.1704911 72.0605725,52.8298952 C71.7005696,48.8304732 69.7745077,45.2874419 68.8779088,44.390843 C67.4982152,43.0111494 66.1201614,42.1675882 64.7437474,41.8601593 C64.1234012,41.7216019 63.4752847,41.9099546 63.0258252,42.359414 L52.4016406,52.9835631 C51.9744306,53.4107731 51.781748,54.0191029 51.8851003,54.6143634 L51.885082,54.6143665 C52.1312943,56.032433 52.9665479,57.4536137 54.390843,58.8779088 C55.4071502,59.894216 58.6487741,61.6019737 62.8825363,62.0079314 C65.185236,62.2287276 66.9639759,62.32888 68.3223891,62.2034213 C68.1841668,63.5729987 68.2735165,65.3742837 68.4842023,67.7148796 C68.8442052,71.7143016 70.7702671,75.2573329 71.666866,76.1539318 C73.0465596,77.5336254 74.4246134,78.3771866 75.8010274,78.6846155 C76.4213736,78.8231729 77.0694901,78.6348202 77.5189495,78.1853608 L88.1431342,67.5612117 C88.5703442,67.1340017 88.7630268,66.5256719 88.6596745,65.9304114 L88.6596927,65.9304082 C88.4134805,64.5123418 87.5782268,63.0911611 86.1539318,61.666866 C85.1376246,60.6505588 81.8960007,58.9428011 77.6622385,58.5368434 C75.3595388,58.3160472 73.5807989,58.2158948 72.2223857,58.3413535 Z M70,90 C53.4314575,90 40,76.5685425 40,60 C40,43.4314575 53.4314575,30 70,30 C86.5685425,30 100,43.4314575 100,60 C100,76.5685425 86.5685425,90 70,90 Z" id="path-2"></path>
        <filter x="-13.3%" y="-11.7%" width="126.7%" height="126.7%" filterUnits="objectBoundingBox" id="filter-3">
            <feOffset dx="0" dy="1" in="SourceAlpha" result="shadowOffsetOuter1"></feOffset>
            <feGaussianBlur stdDeviation="2.5" in="shadowOffsetOuter1" result="shadowBlurOuter1"></feGaussianBlur>
            <feColorMatrix values="0 0 0 0 0   0 0 0 0 0   0 0 0 0 0  0 0 0 0.123924366 0" type="matrix" in="shadowBlurOuter1"></feColorMatrix>
        </filter>
    </defs>
    <g stroke="none" stroke-width="1" fill="none" fill-rule="evenodd" transform="translate(-35.000000, -26.000000)">
        <use fill="black" fill-opacity="1" filter="url(#filter-3)" xlink:href="#path-2"></use>
        <use fill="url(#linearGradient-1)" fill-rule="evenodd" xlink:href="#path-2"></use>
    </g>
</svg>